<svg width="150" height="48" viewBox="0 0 150 48" fill="none" xmlns="http://www.w3.org/2000/svg">
<mask id="mask0_403_12758" style="mask-type:luminance" maskUnits="userSpaceOnUse" x="43" y="0" width="11" height="10">
<path fill-rule="evenodd" clip-rule="evenodd" d="M53.6612 0H43.8145L43.8145 9.51333H53.6612V0V0Z" fill="white"></path>
</mask>
<g mask="url(#mask0_403_12758)">
<path fill-rule="evenodd" clip-rule="evenodd" d="M48.7378 7.26781C50.1745 8.328 51.7806 9.51352 51.7806 9.51352C51.7806 9.51352 51.1671 7.59543 50.6185 5.87962C52.0551 4.81943 53.6612 3.6339 53.6612 3.6339H49.9C49.3513 1.9181 48.7378 0 48.7378 0L47.5757 3.6339H43.8145C43.8145 3.6339 45.4206 4.81943 46.8572 5.87962L45.6951 9.51352C45.6951 9.51352 47.3012 8.328 48.7378 7.26781Z" fill="#F04E2F"></path>
</g>
<mask id="mask1_403_12758" style="mask-type:luminance" maskUnits="userSpaceOnUse" x="0" y="13" width="10" height="15">
<path fill-rule="evenodd" clip-rule="evenodd" d="M0 13.8486V27.1862H9.84701V13.8486H0V13.8486Z" fill="white"></path>
</mask>
<g mask="url(#mask1_403_12758)">
<path fill-rule="evenodd" clip-rule="evenodd" d="M9.1905 16.5161L9.84713 13.8486H0V15.5157V16.5161V19.1835V21.8509V24.5187V25.5187V27.1862H9.84713V24.5187H2.62613V21.8509H9.1905V19.1835H2.62613V16.5161H9.1905Z" fill="#F04E2F"></path>
</g>
<path fill-rule="evenodd" clip-rule="evenodd" d="M14.1138 16.5156H20.6781L14.1138 24.5182V27.1857H23.9605V24.5182H17.3961L23.9605 16.5156V13.8481H14.1138V16.5156Z" fill="#F04E2F"></path>
<path fill-rule="evenodd" clip-rule="evenodd" d="M28.2275 15.8489H32.1662V27.1857H34.1357V15.8489H37.418L38.0743 13.8481H28.2275V15.8489Z" fill="#222222"></path>
<path fill-rule="evenodd" clip-rule="evenodd" d="M75.8206 13.8481H73.8511V25.1849V27.1857H75.8206H83.0416L83.6982 25.1849H75.8206V13.8481Z" fill="#222222"></path>
<path fill-rule="evenodd" clip-rule="evenodd" d="M97.8116 27.1857V25.1849H89.934V21.5171H97.155V19.5167H89.934V15.8489H97.155L97.8116 13.8481H89.934H87.9648V15.8489V19.5167V21.5171V25.1849V27.1857H89.934H97.8116Z" fill="#222222"></path>
<path fill-rule="evenodd" clip-rule="evenodd" d="M42.3413 27.1857H44.3108L48.9057 17.8493L53.5009 27.1857H55.4704L48.9057 13.8481L42.3413 27.1857Z" fill="#222222"></path>
<path fill-rule="evenodd" clip-rule="evenodd" d="M61.7068 25.1854V21.5176H65.8097C66.8049 21.5176 67.6149 22.3404 67.6149 23.3515C67.6149 24.3625 66.8049 25.1854 65.8097 25.1854H61.7068ZM61.7068 15.849H64.8249C65.8206 15.849 66.6302 16.6719 66.6302 17.6829C66.6302 18.6943 65.8206 19.5168 64.8249 19.5168H61.7068V15.849ZM69.5844 23.3515C69.5844 21.9637 68.8562 20.7519 67.7694 20.0787C68.2877 19.4223 68.5997 18.59 68.5997 17.6829C68.5997 15.5652 66.9096 13.8486 64.8249 13.8486H59.7373V27.1862H65.8097C67.8943 27.1862 69.5844 25.4692 69.5844 23.3515Z" fill="#222222"></path>
<mask id="mask2_403_12758" style="mask-type:luminance" maskUnits="userSpaceOnUse" x="0" y="0" width="150" height="48">
<path fill-rule="evenodd" clip-rule="evenodd" d="M0 47.4583H150V0H0V47.4583Z" fill="white"></path>
</mask>
<g mask="url(#mask2_403_12758)">
<path fill-rule="evenodd" clip-rule="evenodd" d="M104.312 18.8291H106.927V18.1099H104.312V18.8291ZM104.312 20.3232H106.927V19.5483H104.312V20.3232ZM108.125 17.1689H103.386C103.713 16.874 104.13 16.4314 104.639 15.8405H105.238C105.347 15.9514 105.492 16.1365 105.674 16.394C105.856 16.6527 106.001 16.8558 106.11 17.0028L107.363 16.7262C107.239 16.5651 107.168 16.4702 107.147 16.4394C106.911 16.1716 106.726 15.9693 106.6 15.8405H108.888V14.8443H105.402C105.583 14.5868 105.746 14.2908 105.892 13.959L104.476 13.8481C103.967 14.8443 103.168 15.767 102.079 16.6154C102.406 16.9476 102.678 17.2794 102.896 17.6116L103.114 17.4455V27.1857H104.312V21.2089H108.125V17.1689Z" fill="#F04E2F"></path>
<path fill-rule="evenodd" clip-rule="evenodd" d="M110.632 20.3236H113.301V19.5487H110.632V20.3236ZM110.632 18.8291H113.301V18.1099H110.632V18.8291ZM107.036 23.644H110.577V22.8691H107.036V23.644ZM107.036 25.1937H110.577V24.4192H107.036V25.1937ZM111.612 14.2908C111.685 14.1441 111.739 14.0333 111.776 13.959L110.414 13.8481C109.978 14.8081 109.342 15.7118 108.507 16.5601C108.652 16.6344 108.834 16.7262 109.052 16.8367C109.306 16.9845 109.488 17.0954 109.597 17.1689H109.433V21.2089H113.301V25.3041C113.337 25.9312 112.865 26.1525 111.885 25.9685V22.0942H105.729V25.9685H110.958C110.958 26.0417 110.976 26.1342 111.013 26.2451C111.122 26.6504 111.194 26.9647 111.231 27.1857H112.865C113.991 27.1857 114.536 26.6325 114.5 25.5255V17.1689H109.651C110.087 16.7262 110.432 16.2832 110.686 15.8405H111.395C111.576 16.0257 111.794 16.2653 112.048 16.5601C112.193 16.7815 112.321 16.9476 112.43 17.058L113.628 16.7262L112.811 15.8405H115.208V14.8443H111.34C111.449 14.5868 111.539 14.4017 111.612 14.2908Z" fill="#F04E2F"></path>
<path fill-rule="evenodd" clip-rule="evenodd" d="M107.148 16.4393C107.183 16.4791 107.216 16.5162 107.254 16.5594C107.16 16.4461 107.125 16.4067 107.148 16.4393Z" fill="#F04E2F"></path>
<path fill-rule="evenodd" clip-rule="evenodd" d="M122.319 19.8499H125.328V18.7939H122.319V19.8499ZM122.319 21.9063H125.328V20.8503H122.319V21.9063ZM126.75 21.9063H129.759V20.8503H126.75V21.9063ZM126.75 19.8499H129.759V18.7939H126.75V19.8499ZM126.75 22.9619H131.181V17.7383H120.897V22.9619H125.328V23.9067H119.475V24.9627H125.328V27.1855H126.75V24.9627H132.604V23.9067H126.75V22.9619Z" fill="#F04E2F"></path>
<path fill-rule="evenodd" clip-rule="evenodd" d="M127.899 15.9601H130.525V14.8485H127.899V15.9601ZM126.641 16.9601H131.783V13.8481H126.641V16.9601Z" fill="#F04E2F"></path>
<path fill-rule="evenodd" clip-rule="evenodd" d="M121.553 15.9601H124.124V14.8485H121.553V15.9601ZM120.295 16.9601H125.383V13.8481H120.295V16.9601Z" fill="#F04E2F"></path>
<path fill-rule="evenodd" clip-rule="evenodd" d="M139.813 20.7948H147.113V19.85H139.813V20.7948ZM139.813 18.9053H147.113V17.9605H139.813V18.9053ZM145.097 23.9624H149.891V22.7956H144.171V21.9064H148.584V16.8493H143.899V15.9601H149.564V14.8485H143.899V13.8481H142.482V16.8493H138.342V21.9064H142.754V22.7956H137.089V23.9624H141.829C140.739 24.778 139.086 25.4074 136.871 25.852C136.98 25.9994 137.125 26.2413 137.307 26.5746C137.416 26.7594 137.506 26.8889 137.579 26.9636C139.794 26.3704 141.52 25.5742 142.754 24.5739V27.1857H144.171V24.5739C145.151 25.5377 146.876 26.3148 149.347 26.908C149.419 26.722 149.564 26.4634 149.782 26.13C149.891 25.9441 149.963 25.8146 150 25.7411C147.748 25.3708 146.114 24.778 145.097 23.9624Z" fill="#222222"></path>
<path fill-rule="evenodd" clip-rule="evenodd" d="M89.616 44.2781C89.6103 44.2762 89.6051 44.2735 89.5995 44.2716C89.5957 44.2834 89.5916 44.2956 89.5878 44.3074C89.6096 44.283 89.616 44.2811 89.616 44.2781ZM89.616 44.2781C89.9392 44.387 90.3011 44.4381 90.7616 44.3714C90.7687 44.3501 90.7755 44.3288 90.7826 44.3074C90.7687 44.2434 90.7545 44.1794 90.7406 44.1158C90.3607 44.0328 89.8586 43.9497 89.5038 43.9029C89.4003 43.9745 89.412 44.0103 89.3152 44.0731V44.1585C89.4075 44.2008 89.5023 44.2381 89.5995 44.2716C89.6028 44.2621 89.6058 44.253 89.6088 44.2434C89.6103 44.2712 89.616 44.275 89.616 44.2781ZM61.062 43.3916C60.9243 43.4629 60.618 43.189 60.3491 43.2213C59.8781 43.2781 59.5417 43.5124 59.1127 43.5836C59.0636 43.541 59.0148 43.4983 58.9657 43.4556C58.7546 43.4636 58.6725 43.5531 58.6095 43.7112C58.7902 44.4568 59.079 44.9006 59.3013 45.5425C59.364 45.5707 59.427 45.5992 59.49 45.6274C59.511 45.5992 59.5316 45.5707 59.5526 45.5425C59.7078 45.2415 59.1956 44.4423 59.1543 44.0518C59.5256 43.8983 60.1691 43.6088 60.7057 43.7326C60.7125 43.7608 60.7196 43.7893 60.7263 43.8175C60.405 44.1939 60.0836 44.5699 59.7622 44.9463C59.6973 45.1341 59.7922 45.2034 59.8042 45.3718C60.1387 45.5627 60.4252 45.2312 60.5797 45.0312C60.918 44.5947 60.9832 44.1916 61.2296 43.7539C61.5018 43.4202 61.7745 43.0865 62.0471 42.7531V42.6465C62.0118 42.6324 61.977 42.6183 61.9421 42.6038C61.6923 42.8545 61.3867 43.2373 61.062 43.3916ZM53.6632 42.9874C53.7048 43.0194 53.7198 43.0484 53.7468 43.0937C53.6748 43.0491 53.6902 43.0865 53.6632 42.9874ZM54.2711 42.5189C54.06 42.6331 53.7202 42.6019 53.6002 42.8168C53.5623 42.8537 53.5545 42.9078 53.5372 42.9661C53.6216 43.008 53.5672 42.9566 53.5792 43.051C53.6771 43.0865 53.775 43.1219 53.8728 43.1577C54.0247 43.1295 54.1395 43.0095 54.2501 42.9661C54.4695 42.8792 54.6682 43.0625 54.795 42.9234C54.816 42.8735 54.837 42.824 54.858 42.7741C54.7488 42.5421 54.5651 42.5093 54.2711 42.5189ZM60.3075 41.5821C60.3341 41.4785 60.3363 41.4488 60.2655 41.4114C60.2666 41.325 60.1533 41.2674 60.0138 41.2625C59.5327 41.5505 59.0171 41.8743 58.4628 42.1356V42.3272C59.0786 42.7592 59.8196 41.8015 60.3075 41.5821ZM92.229 41.0072C92.2147 40.9573 92.2008 40.9078 92.187 40.8579C91.8877 40.7211 91.8468 40.9425 91.5581 40.8579C91.4362 40.8225 91.3826 40.7257 91.2018 40.709C91.1137 40.9029 90.9738 40.8728 90.8662 41.0072C90.8456 41.163 90.8246 41.3192 90.8036 41.4754C90.5917 41.8301 89.5065 42.2655 89.085 42.4975C88.8821 42.6091 88.8228 42.811 88.4981 42.8168C88.4636 42.933 88.3983 43.0385 88.4771 43.1577C88.602 43.3368 88.9072 43.288 89.085 43.179C89.6463 42.8343 90.1863 42.3707 90.7826 42.093C90.9075 42.2712 90.8801 43.0956 90.9292 43.413C91.1017 44.5299 91.1925 45.6518 91.1178 46.7558C90.6288 46.5105 90.1623 45.995 89.8185 45.5848C89.6621 45.3985 89.589 45.1105 89.3362 44.9463C89.1986 45.0202 89.5522 45.7234 89.6508 45.9044C89.9835 46.5166 90.6892 47.2027 91.4951 47.4587C91.53 47.4446 91.5652 47.4301 91.6001 47.416C91.7467 47.008 91.587 46.4282 91.5581 45.9893C91.5277 45.5272 91.6751 45.0023 91.5581 44.4564C91.5161 44.059 91.4741 43.6613 91.4325 43.264C91.4497 42.7886 91.1463 42.1779 91.3695 41.6884C91.4538 41.5036 92.0381 41.1714 92.229 41.0072ZM60.0768 40.5813C59.6505 40.7303 59.2245 40.8792 58.7981 41.0282C58.7842 41.0636 58.7703 41.0994 58.7565 41.1349C58.7062 41.216 58.7752 41.325 58.8821 41.3691C59.1888 41.5505 60.0967 41.0533 60.3075 40.9006C60.2992 40.7954 60.3048 40.7981 60.2445 40.7516C60.2171 40.632 60.1811 40.6164 60.0768 40.5813ZM78.0183 43.5836C77.9493 43.5364 77.9561 43.5307 77.9553 43.413C78.2231 43.2998 78.6326 43.0556 78.8145 42.8381C78.8355 42.8526 78.8565 42.8667 78.8775 42.8808C78.8441 43.3752 78.5805 43.9455 78.0183 43.5836ZM79.0031 43.7749C79.1302 43.5128 79.3023 43.2907 79.4013 43.0084C79.4572 42.7958 79.5135 42.5829 79.569 42.3699C79.8221 41.9882 80.865 41.675 80.9523 41.1135C80.4217 41.1768 80.0778 41.7055 79.569 41.8373C79.5412 41.6034 79.5131 41.3691 79.4853 41.1349C79.3946 41.1063 79.3035 41.0781 79.2127 41.0495C79.1711 41.0709 79.1291 41.0922 79.0871 41.1135C78.9727 41.4792 79.092 41.8107 79.0451 42.2206C78.8006 42.3486 78.5561 42.4762 78.3116 42.6038H78.2906C78.4781 41.8202 78.6483 40.6587 77.8293 40.411C77.7735 40.4465 77.7176 40.4819 77.6617 40.5173C77.6478 40.5882 77.634 40.6594 77.6197 40.7303C77.9748 41.1783 78.045 42.4994 77.6827 42.9661C77.4592 43.2103 76.9848 43.3486 76.7186 43.541C76.6848 43.68 76.6848 43.7638 76.7186 43.9029C76.9008 44.024 77.1097 44.1356 77.4105 44.1371L77.4315 44.1158C77.397 43.9787 77.3433 43.9825 77.2635 43.9029C77.3137 43.7954 77.3718 43.7238 77.4941 43.6899C77.5481 43.9531 77.979 44.1196 78.2486 44.1585C78.1927 44.272 78.1368 44.3855 78.081 44.499C78.0881 44.5204 78.0948 44.5417 78.102 44.563C78.4203 44.5425 78.5778 44.344 78.8145 44.1794C79.1085 44.299 79.4122 44.3112 79.758 44.3074C79.8393 44.2385 79.9162 44.1272 79.9466 44.0091C79.8356 43.7893 79.1966 43.7756 79.0031 43.7749ZM55.2352 44.2221C55.0406 44.2503 54.8958 44.1394 54.816 43.9878C54.9071 43.8141 55.005 43.7284 55.0046 43.4556C54.9116 43.357 54.7856 43.32 54.5853 43.328C54.2951 43.6152 53.7506 43.883 53.3696 44.0518C53.2383 43.8526 53.5901 42.6213 53.3276 42.4549C53.3557 42.3981 53.3835 42.3413 53.4116 42.2846C53.7915 42.5044 54.684 42.4533 55.0046 42.1992H55.1092C55.2738 42.7162 55.2903 43.5554 55.2352 44.2221ZM53.4746 42.2206C53.4675 42.235 53.4603 42.2491 53.4536 42.2632C53.4465 42.2491 53.4393 42.235 53.4326 42.2206H53.4746ZM53.6212 41.4754C53.9028 41.3592 54.6348 40.925 54.858 40.709C54.9528 40.7109 54.978 40.7128 55.0256 40.7516C55.2266 40.9672 55.0012 41.4716 55.0882 41.8373C54.612 41.9082 53.8785 41.9345 53.4326 42.1143C53.451 41.851 53.586 41.747 53.6212 41.4754ZM55.4865 44.563C55.5393 44.3905 55.6661 44.1756 55.7171 43.9878C55.7741 43.7783 55.5581 42.0267 55.4655 41.7947C55.5678 41.619 55.4775 40.7821 55.4238 40.496C55.2585 40.3745 55.1857 40.3208 54.8996 40.3257C54.4023 40.6198 53.709 40.843 53.5162 41.2411H53.4952C53.5173 41.085 53.5151 40.9509 53.4536 40.8152C53.3283 40.8164 53.2751 40.827 53.223 40.9006C53.2083 40.9406 53.2005 40.9074 53.223 40.9432C53.1723 40.9882 53.2005 40.9253 53.16 40.9859C53.0055 41.2434 53.1412 41.5383 53.0553 41.88C52.8806 42.5749 53.0602 43.9196 52.8457 44.648L53.0133 44.8183C53.0205 44.8255 53.0272 44.8328 53.0343 44.8396C53.1405 44.8373 53.8736 44.2648 54.0405 44.1585H54.0611C54.0682 44.1653 54.0753 44.1726 54.0821 44.1794C54.0063 44.6472 53.1915 45.6084 52.8667 45.883C52.8735 45.9112 52.8806 45.9398 52.8877 45.968L52.9503 46.0533C53.7671 45.9832 53.9865 44.6446 54.669 44.3501C54.7552 44.3851 54.7492 44.3806 54.774 44.4777C54.696 44.5322 54.7252 44.6099 54.732 44.7543C55.4628 44.931 56.2826 45.5356 56.7022 46.1173C56.8777 46.1208 56.982 46.0827 57.0585 45.9893C57.129 45.8979 57.1008 45.667 57.0795 45.5425C56.5601 45.307 56.1423 44.6678 55.4865 44.563ZM87.3453 43.0724C87.3172 43.0796 87.2895 43.0865 87.2613 43.0937C87.1961 42.7745 86.9115 42.7543 86.6325 42.7531C86.5623 42.4488 86.3846 41.2823 86.5695 41.0072C86.6741 40.8518 86.8668 40.8583 86.9887 40.7516C87.1005 40.7657 87.2126 40.7798 87.3243 40.7939C87.6521 41.3318 87.3776 42.4381 87.3453 43.0724ZM86.5695 44.1371H86.5488C86.6021 43.8274 86.6306 43.6773 86.6325 43.2853C86.6745 43.2568 86.7165 43.2286 86.7585 43.2C86.9587 43.216 87.069 43.315 87.1773 43.477C87.2265 43.4697 87.2752 43.4629 87.3243 43.4556C87.3311 43.4629 87.3382 43.4697 87.3453 43.477C87.1833 43.691 86.8406 43.9768 86.5695 44.1371ZM87.8272 43.1364C87.8482 42.888 87.8692 42.6392 87.8902 42.3912C87.972 41.9429 87.9573 40.8141 87.7436 40.5387C87.6157 40.3741 87.3326 40.3608 87.1773 40.3044C86.9088 40.475 86.5406 40.4568 86.3392 40.6876C86.2762 40.8297 86.2132 40.9714 86.1506 41.1135C86.0928 41.1829 86.0332 41.1451 85.983 41.2411C85.9143 41.3931 86.1442 42.5928 86.1716 42.8168C86.223 43.243 86.2601 44.1547 86.1296 44.5204C86.0388 44.6194 85.9477 44.7189 85.857 44.8183C85.7861 45.0891 86.1071 45.144 86.2342 45.1592C86.4603 45.0312 87.183 44.2724 87.2613 44.0305H87.3453C87.3592 44.1086 87.3731 44.1867 87.387 44.2648C87.429 44.2789 87.471 44.2933 87.513 44.3074C87.7293 44.1326 87.6116 43.8571 87.7436 43.5836C87.8152 43.4343 87.9727 43.3562 88.0368 43.179V43.1577C87.9468 43.1021 87.9345 43.0895 87.8272 43.1364ZM75.9641 46.0107C75.7481 45.8933 75.534 45.7032 75.3142 45.5638C74.6793 45.1592 74.0055 43.917 73.0717 43.9029C73.0578 43.8743 73.0436 43.8461 73.0297 43.8175C73.3612 43.5082 74.0538 43.3543 74.1825 42.8594C74.1686 42.8168 74.1547 42.7741 74.1405 42.7318C74.0501 42.6781 74.0298 42.6823 73.8682 42.6891C73.608 42.8876 73.347 43.0975 73.0507 43.264C73.0368 43.2568 73.0226 43.2499 73.0087 43.2427C73.1077 42.6834 73.4137 42.4507 73.9518 42.2419C73.9893 42.133 74.0066 42.0697 73.9938 41.944C73.6151 41.8095 73.4103 41.9905 73.1347 42.1783C72.7608 41.6629 74.0253 40.9269 74.2875 40.7939C74.2732 40.723 74.2593 40.6522 74.2455 40.5813C73.8607 40.5341 73.6252 40.7608 73.3443 40.8792C73.3301 40.8724 73.3162 40.8651 73.3023 40.8579C73.2007 40.4362 73.3556 39.9059 72.9251 39.7935C72.8831 39.8076 72.8411 39.8217 72.7991 39.8358C72.5943 40.2069 72.8602 40.725 72.8411 41.1349C72.5688 41.3143 71.7573 41.6385 71.6253 41.9227C71.5177 42.1158 71.7975 42.2735 71.982 42.2632C72.1578 42.0983 72.4436 41.8971 72.7155 41.7737H72.7365C72.6802 42.565 72.276 42.6103 71.7723 42.9021C71.7101 42.9451 71.6977 43.0248 71.6673 43.0937C71.6955 43.1577 71.7232 43.2213 71.7513 43.2853C72.0566 43.4594 72.3536 43.2949 72.5268 43.1364C72.9502 43.7215 71.2642 44.0133 71.1225 44.3924C71.0958 44.5204 71.1832 44.5947 71.2481 44.6267C71.6628 44.7966 72.0277 44.3078 72.3798 44.2221C72.3 44.9958 71.5083 46.405 70.7872 46.6282V46.7135C71.2267 47.0015 71.4903 46.6381 71.7513 46.309C72.1072 45.8594 72.795 44.8907 72.9041 44.1371C72.918 44.1299 72.9318 44.1227 72.9461 44.1158C73.254 44.2404 73.4403 44.5375 73.6796 44.7333C74.2522 45.2015 74.7431 45.7295 75.3562 46.1596C75.621 46.3455 76.005 46.7646 76.4253 46.6922C76.5202 46.5646 76.5457 46.4632 76.53 46.2663C76.362 46.0968 76.1962 46.1368 75.9641 46.0107ZM60.1395 40.219C60.204 40.1356 60.2726 40.1025 60.3075 39.9851C60.2411 39.8465 60.1762 39.752 59.9928 39.7295C59.523 39.963 58.779 39.9741 58.4418 40.3684C58.4347 40.3966 58.428 40.4251 58.4208 40.4533C58.8127 40.9436 59.631 40.3208 60.1395 40.219ZM82.2941 42.6251C82.1538 41.8709 82.4613 41.1973 82.6713 40.6027C82.7977 40.2438 82.6672 39.5128 82.4827 39.3676C82.1385 39.0968 81.8347 39.2297 81.4766 39.1333C81.348 39.2404 81.2655 39.1962 81.267 39.4526C81.2808 39.4598 81.2947 39.467 81.309 39.4739C81.3157 39.467 81.3228 39.4598 81.33 39.4526C81.3648 39.4952 81.3997 39.5379 81.4346 39.5806C81.6093 39.6568 82.0106 39.4789 82.1471 39.7295C82.287 39.848 82.2255 40.5707 82.1261 40.8152C81.8973 41.3802 81.7751 42.3234 81.9375 42.9234C81.6963 43.3886 81.0438 43.5802 80.7637 43.9669C80.6996 44.0556 80.7108 44.1078 80.7221 44.2434C80.8488 44.3078 80.9666 44.4255 81.0993 44.4137C81.1695 44.4705 81.831 43.7318 82.0425 43.5623H82.1261C82.365 44.5013 82.5948 45.1973 82.5453 46.181C82.0421 46.4065 81.9311 45.6838 81.5812 45.755H81.5392C81.5655 46.0728 81.7353 46.4221 81.9375 46.5642C82.23 46.7703 82.8828 46.7394 83.0066 46.4152C83.3107 45.6183 82.5712 43.9044 82.4197 43.1364C82.8855 42.947 83.496 42.0853 83.9917 41.7737V41.6457C83.6283 41.4514 82.6683 42.509 82.2941 42.6251ZM60.0978 39.176C59.8196 38.9181 59.0977 38.6804 58.5885 38.6861C58.5468 38.7429 58.5048 38.7996 58.4628 38.8564V39.0057C58.8555 39.3006 59.5275 39.3855 59.9508 39.5166C60.0716 39.429 60.1068 39.403 60.0978 39.176ZM54.6273 39.027C54.6341 39.0411 54.6412 39.0552 54.6483 39.0693C54.2823 39.6126 53.8597 40.259 53.5792 40.7939V40.9006H53.7258C53.9838 40.7855 54.9052 39.5627 55.0882 39.3463C55.1917 39.224 55.1771 38.9691 55.2352 38.7928C55.0732 38.6069 54.9498 38.6213 54.69 38.5585C53.9951 38.8865 52.6863 38.8442 52.2798 39.3676V39.389C52.3308 39.4396 52.3395 39.4503 52.4265 39.4739C52.3916 39.4952 52.3567 39.5166 52.3218 39.5379C52.3916 39.6198 52.3991 39.6522 52.5105 39.6442C52.5941 39.6019 52.551 39.64 52.5521 39.5592C53.2113 39.4865 54.1151 39.0103 54.6273 39.027ZM101.724 45.5848H101.786C101.727 45.6057 101.776 45.6194 101.724 45.5848ZM95.4566 42.6465C95.4637 42.6251 95.4705 42.6038 95.4776 42.5829C95.4948 42.635 95.4855 42.6008 95.4566 42.6465ZM101.535 44.4564C101.299 44.0232 101.29 43.3638 100.99 43.0084C100.976 43.0229 100.962 43.037 100.948 43.051C100.569 43.299 101.325 45.0709 101.451 45.3082V45.3295C100.093 45.7699 98.7045 46.029 97.2382 45.5211C96.9708 45.0613 96.9528 44.3718 96.756 43.9455C96.6303 43.7539 96.5043 43.5623 96.3787 43.3707C96.3483 43.2309 96.5497 42.5535 96.6093 42.3486C96.5452 42.2389 96.4935 42.1737 96.3787 42.1143C96.0075 42.1307 95.7671 42.4126 95.5196 42.5829C95.6373 42.1726 96.2152 41.8804 96.4417 41.5394C96.9828 40.7246 97.8802 39.9448 98.2233 39.027C98.1675 38.9417 98.1116 38.8564 98.0557 38.7714C97.4137 38.8164 97.2131 39.2994 96.6933 39.3676C96.6723 39.0198 96.6513 38.672 96.6303 38.3242C96.5745 38.2815 96.5186 38.2389 96.4627 38.1966C96.3926 38.1893 96.3228 38.1825 96.2531 38.1752C96.1057 38.3234 96.1687 38.4518 96.0225 38.6011C96.0963 38.8789 96.3877 39.2404 96.2321 39.6232C96.0948 39.7859 95.5132 39.9432 95.31 40.0065C95.0992 40.0716 94.8922 39.9116 94.7441 40.0701C94.7298 40.0842 94.716 40.0987 94.7021 40.1128C94.7088 40.1695 94.716 40.2263 94.7231 40.283H94.7857V40.2617C94.7857 40.2617 95.2042 40.4792 95.3936 40.411C95.6591 40.3185 95.9246 40.2263 96.1901 40.1341C96.1717 40.277 96.1203 40.3269 96.1481 40.4533H96.3577C96.4646 40.2907 96.4935 40.0499 96.6093 39.9211C96.8006 39.7086 97.2446 39.4834 97.5105 39.3676C97.4677 39.7733 95.802 41.8069 95.6242 41.944C95.6313 41.9295 95.6381 41.9154 95.6452 41.9013C95.2035 42.1524 94.3845 43.7154 94.1782 43.7539C94.1797 43.9558 94.2236 43.9291 94.3038 44.0305C94.887 43.9981 95.5076 42.7863 96.1065 42.5615C96.1342 42.547 96.1623 42.533 96.1901 42.5189L96.2111 42.5615C96.1132 42.8945 95.6032 44.0476 95.6452 44.1794C95.4663 44.3962 95.1307 44.8335 95.163 45.0099C94.9732 45.2903 94.461 45.5958 94.4715 46.0747C94.5345 46.096 94.5971 46.1173 94.6601 46.1387C95.2203 45.7459 95.8762 44.5935 96.1481 43.9029H96.2111C96.4676 44.4107 96.5291 45.5303 96.9026 45.8617C97.1122 46.0476 97.395 46.0629 97.6991 46.1596C98.7945 46.5082 99.7095 46.261 100.78 46.0107C101.212 45.9097 101.584 45.7638 101.87 45.6701H102.205C102.255 45.5566 102.303 45.443 102.352 45.3295C102.185 44.9291 101.735 44.8232 101.535 44.4564ZM49.5761 38.3882C49.575 38.2705 49.5577 38.3322 49.6177 38.2602C49.653 38.2747 49.6878 38.2888 49.7227 38.3029C49.6773 38.3589 49.6518 38.3615 49.5761 38.3882ZM51.0221 40.56C50.9943 40.4606 50.9662 40.3611 50.9385 40.2617C50.7435 40.1451 50.2215 40.1116 50.142 39.8785C50.2815 39.7436 50.4213 39.6088 50.5612 39.4739C50.6171 39.445 50.5736 39.4716 50.5612 39.4103C51.0337 39.2888 51.5088 38.624 51.5043 38.2815C51.2553 38.1238 50.8008 38.1036 50.4352 38.0899C50.1461 38.2244 49.7261 38.1284 49.4501 38.2815C49.4246 38.3402 49.4351 38.3166 49.4291 38.3669C49.4118 38.419 49.4216 38.3851 49.4501 38.4309C49.4711 38.4731 49.4857 38.4179 49.4921 38.4095C49.8723 38.613 50.2353 38.568 50.8125 38.5371C50.8196 38.5726 50.8267 38.608 50.8335 38.6434C50.403 38.781 50.13 39.5989 49.7017 39.8571C49.6522 39.8152 49.4793 39.8152 49.3665 39.8358C49.2922 39.9829 49.3342 40.0762 49.3665 40.2617C49.7021 40.4632 50.3583 40.5619 50.7288 40.6027V40.6236C50.4967 40.8324 50.118 40.8583 49.8273 41.0072C49.2022 41.3276 48.5321 41.8038 47.7525 41.944C47.7176 42.0149 47.6827 42.0857 47.6475 42.157C47.7401 42.2918 47.7937 42.3356 47.9201 42.4335C48.4331 42.3768 48.774 42.064 49.1568 41.88C49.5637 41.6846 50.2192 41.4248 50.7705 41.1562C50.9126 41.0869 51.1758 40.923 51.4623 40.9432C51.4762 40.9714 51.4905 41 51.5043 41.0282C51.5925 41.2846 50.9328 42.269 50.8125 42.5189C50.7847 42.5257 50.7566 42.533 50.7288 42.5402C50.679 42.2674 50.7 41.9131 50.6868 41.667C50.6175 41.6571 50.5087 41.6015 50.3306 41.6034C50.1112 42.44 50.2316 44.0354 50.2676 45.0099C50.2537 45.5067 50.2398 46.0038 50.2256 46.5006V46.5219C49.5615 46.5048 48.798 45.1916 48.6746 44.6053H48.549C48.408 44.8857 48.6607 45.3246 48.7586 45.5425C48.6933 45.6811 48.9577 46.053 49.0308 46.1596C49.3837 46.6739 49.8266 47.1455 50.5818 47.0114C50.7821 46.5844 50.7813 45.8331 50.6868 45.4145C50.7007 45.4076 50.7146 45.4004 50.7288 45.3931V45.4358C50.8485 45.107 50.7382 43.685 50.6238 43.3707C50.6448 43.3493 50.6658 43.328 50.6868 43.3067C50.7375 43.2575 50.763 42.9752 50.7915 42.8168C51.3341 42.4674 51.6333 41.9531 51.9442 41.4541C52.053 41.2804 52.0552 40.8549 51.9236 40.7303C51.7987 40.4438 51.3525 40.5352 51.0221 40.56ZM64.7925 43.9029C64.836 43.5528 64.7812 43.2114 64.6668 42.7531C64.8288 42.328 64.5386 41.0575 64.5202 40.6876C64.5 40.2777 64.3271 39.3535 64.3942 39.1547C64.5093 38.8141 64.8753 38.6316 65.0021 38.2815C64.9395 38.1901 64.9143 38.1234 64.8135 38.0686C64.7583 38.0141 64.6578 38.0335 64.6038 38.0263C64.0196 38.4419 63.1796 38.7021 62.487 38.963V39.176C62.8672 39.3253 63.8456 39.0876 64.017 38.7928H64.08C63.942 40.0072 64.1167 41.0933 64.2476 42.1992C64.2686 42.6678 64.2896 43.1364 64.3106 43.6046C64.3968 44.6137 64.5352 45.5333 64.5412 46.6282C64.197 46.7314 63.2872 45.3455 62.9482 45.1166C62.7716 45.2937 63.1653 45.7295 63.2835 45.9044C63.588 46.3554 64.1426 47.3638 64.9185 47.352C65.0767 47.144 65.1476 46.7124 64.9811 46.5006C65.2991 46.181 64.7336 44.381 64.7925 43.9029ZM72.0026 38.9417C71.9497 38.7265 71.8706 38.8057 71.7093 38.7074C71.5166 38.5901 71.3538 38.0537 71.3531 37.7493C71.2395 37.6998 71.1648 37.648 70.9968 37.643C70.9616 37.6853 70.9267 37.728 70.8918 37.7707C70.9826 38.2735 71.3748 39.4598 72.0026 38.9417ZM90.3633 40.496C90.6405 40.3596 90.7863 40.4979 91.0552 40.432C91.0845 40.3253 91.1073 40.2549 91.0552 40.1554C90.8617 39.7478 90.3517 40.0587 90.0491 40.1128C90.1537 39.8857 90.2587 39.6587 90.3633 39.4312C90.3843 39.1619 90.4053 38.8918 90.4263 38.6225C90.5673 38.4133 90.9915 38.3318 91.1808 38.0686C91.2213 37.9082 91.2033 37.8076 91.0552 37.7707C90.8883 37.741 90.6896 37.9703 90.531 38.0476H90.4473C90.48 37.8979 90.5208 37.7684 90.594 37.664C90.573 37.6145 90.552 37.565 90.531 37.515C90.4275 37.4434 90.3663 37.4038 90.1747 37.4088C90.0176 37.7162 89.9925 37.8514 90.0071 38.2389C89.7191 38.4522 89.0756 38.381 89.064 38.8777C89.1266 38.9417 89.1896 39.0057 89.2526 39.0693C89.4412 39.0754 89.6707 38.9356 89.9021 38.8564C89.9163 38.8636 89.9302 38.8709 89.9441 38.8777C90.0648 39.5543 89.574 40.5368 89.001 40.56C88.9458 40.6392 88.9207 40.6472 88.917 40.7939L88.98 40.9219C89.5792 41.0206 89.8575 40.7455 90.3633 40.496ZM71.0595 39.7935C71.0636 39.9295 71.1116 39.979 71.1645 40.0065C71.5545 40.1981 72.255 39.8316 72.5058 39.6442C72.5197 39.6514 72.5336 39.6587 72.5478 39.6655C73.0023 39.4983 73.692 39.0537 74.3501 39.1333C74.3643 39.0907 74.3782 39.048 74.3921 39.0057C74.5923 38.3661 73.1955 38.9109 73.1553 38.9417C73.1205 38.963 73.0856 38.9844 73.0507 39.0057C73.0368 38.9985 73.0226 38.9912 73.0087 38.9844C73.002 38.963 72.9948 38.9417 72.9877 38.9204C73.2997 38.453 73.6053 38.1928 73.7006 37.4724C73.6863 37.437 73.6725 37.4015 73.6586 37.3661C73.533 37.3375 73.407 37.3093 73.2813 37.2808C73.1298 37.4789 73.1426 37.8808 73.0297 38.1539C72.7076 38.9349 72.1237 39.5771 71.1645 39.6442C71.1296 39.6941 71.0943 39.7436 71.0595 39.7935Z" fill="#212121"></path>
</g>
</svg>